HIERARCHY
ROOT Hips
{
	OFFSET 0.00000 0.00000 0.00000
	CHANNELS 6 Xposition Yposition Zposition Yrotation Zrotation Xrotation 
	JOINT Lumbar
	{
		OFFSET 0 0 0
		CHANNELS 3 Zrotation Xrotation Yrotation
		JOINT Neck
		{
			OFFSET 0.00 0.2701 0.00
			CHANNELS 3 Zrotation Xrotation Yrotation
			End Site
			{
				OFFSET 0.00 0.1379 0.00
			}
		}
		JOINT RightShoulder
		{
			OFFSET 0.0119 0.2289 0.1181
			CHANNELS 3 Zrotation Xrotation Yrotation
			JOINT RightElbow
			{
				OFFSET 0.00 -0.1475 0.00
				CHANNELS 2 Zrotation Yrotation
				JOINT RightWrist
				{
					OFFSET 0.00 -0.1605 0.00
					CHANNELS 2 Zrotation Xrotation
					End Site
					{
						OFFSET 0.0040 -0.1068 0.0006
					}
				}
			}
		}
		JOINT LeftShoulder
		{
			OFFSET 0.0119 0.2289 -0.1181
			CHANNELS 3 Zrotation Xrotation Yrotation
			JOINT LeftElbow
			{
				OFFSET 0.00 -0.1475 0.00
				CHANNELS 2 Zrotation Yrotation
				JOINT LeftWrist
				{
					OFFSET 0.00 -0.1605 0.00
					CHANNELS 2 Zrotation Xrotation
					End Site
					{
						OFFSET 0.0040 -0.1068 -0.0006
					}
				}
			}
		}
	}
	JOINT RightHip
	{
		OFFSET 0.0316 -0.0424 0.0458
		CHANNELS 3 Zrotation Xrotation Yrotation
		JOINT RightKnee
		{
			OFFSET 0.00 -0.2438 0.00
			CHANNELS 1 Zrotation
			JOINT RightAnkle
			{
				OFFSET 0.00 -0.2449 0.00
				CHANNELS 3 Zrotation Xrotation Yrotation
				End Site
				{
					OFFSET 0.1237 -0.0542 0.0051
				}
			}
		}
	}
	JOINT LeftHip
	{
		OFFSET 0.0316 -0.0424 -0.0458
		CHANNELS 3 Zrotation Xrotation Yrotation
		JOINT LeftKnee
		{
			OFFSET 0.00 -0.2438 0.00
			CHANNELS 1 Zrotation
			JOINT LeftAnkle
			{
				OFFSET 0.00 -0.2449 0.00
				CHANNELS 3 Zrotation Xrotation Yrotation
				End Site
				{
					OFFSET 0.1237 -0.0542 -0.0051
				}
			}
		}
	}
}
MOTION
Frames: 33
Frame Time: 0.02
-8e-05 2e-05 9e-05 -179.96336 -39.59784 -2.82885 47.76443 3.08062 -1.86527 -10.90439 -2.07249 -0.53662 69.18612 -101.89865 64.16961 6.43408 93.23787 11.07225 -1.06612 43.52704 101.75709 -64.16989 7.63445 -90.89308 8.92913 1.18808 44.73883 -5.63494 -3.89199 -22.01077 -7.07237 -3.43581 -2.4593 48.79323 8.30615 -0.57827 -27.14496 -7.06915 3.14018 2.30975
-0.0001 1e-05 6e-05 -179.93947 -39.59607 -2.83255 47.75274 3.073 -1.86619 -10.9019 -2.07628 -0.53674 69.42836 -101.87018 64.1696 6.4006 93.24813 11.05617 -1.04824 43.65269 101.7426 -64.17002 7.62908 -90.91454 8.94008 1.16608 44.72934 -5.61494 -3.83451 -22.01239 -7.07491 -3.44692 -2.46577 48.795 8.33671 -0.48591 -27.14861 -7.06744 3.1335 2.30356
-0.00013 -0 2e-05 -179.91563 -39.59432 -2.83624 47.74111 3.06539 -1.86709 -10.89943 -2.08007 -0.53686 69.6698 -101.84182 64.16959 6.36723 93.25839 11.04015 -1.03042 43.77809 101.72811 -64.17014 7.62371 -90.93594 8.951 1.14415 44.71988 -5.59499 -3.77715 -22.014 -7.07744 -3.45801 -2.47222 48.79679 8.36725 -0.39353 -27.15225 -7.06573 3.12679 2.29736
-0.00016 -1e-05 -1e-05 -179.89182 -39.59256 -2.83993 47.72946 3.05779 -1.868 -10.89694 -2.08385 -0.53699 69.91129 -101.81345 64.16958 6.33385 93.26863 11.02412 -1.0126 43.90336 101.71365 -64.17026 7.61835 -90.95734 8.96192 1.12222 44.71042 -5.57505 -3.71984 -22.01561 -7.07997 -3.46908 -2.47867 48.79856 8.39774 -0.30139 -27.1559 -7.06403 3.12012 2.29118
-0.00018 -2e-05 -4e-05 -179.86796 -39.59077 -2.84364 47.71775 3.05017 -1.86897 -10.89443 -2.08763 -0.53711 70.15358 -101.78495 64.16957 6.30036 93.27885 11.00803 -0.99472 44.02889 101.6992 -64.17039 7.613 -90.97879 8.97287 1.10024 44.70091 -5.55507 -3.66245 -22.01723 -7.0825 -3.48018 -2.48513 48.8003 8.42821 -0.20941 -27.15956 -7.06234 3.11352 2.28501
-0.00021 -3e-05 -7e-05 -179.84416 -39.58913 -2.84728 47.70626 3.04257 -1.8697 -10.89206 -2.09146 -0.53723 70.3932 -101.7569 64.16957 6.26725 93.28918 10.99213 -0.97705 44.15401 101.68464 -64.17051 7.60758 -91.00008 8.98373 1.07838 44.69158 -5.53518 -3.60516 -22.01882 -7.08502 -3.49125 -2.49158 48.80218 8.4589 -0.11624 -27.16316 -7.0606 3.10657 2.27874
-0.00024 -4e-05 -0.0001 -179.82028 -39.58718 -2.85104 47.69435 3.03496 -1.8709 -10.8894 -2.09517 -0.53735 70.63797 -101.72798 64.16955 6.2334 93.29929 10.97588 -0.95896 44.27973 101.67032 -64.17064 7.60231 -91.02167 8.99475 1.05632 44.6819 -5.51513 -3.54771 -22.02047 -7.08756 -3.50236 -2.49805 48.80379 8.48914 -0.02544 -27.16687 -7.05894 3.10032 2.27268
-0.00026 -5e-05 -0.00014 -179.79647 -39.58551 -2.8547 47.68282 3.02736 -1.87167 -10.88702 -2.099 -0.53747 70.87794 -101.69984 64.16954 6.20024 93.30959 10.95995 -0.94127 44.40504 101.65577 -64.17076 7.59689 -91.04298 9.00565 1.03443 44.67253 -5.49523 -3.49044 -22.02207 -7.09009 -3.51342 -2.5045 48.80563 8.51974 0.06729 -27.17048 -7.05722 3.09346 2.26645
-0.00029 -6e-05 -0.00017 -179.77273 -39.58423 -2.85822 47.6718 3.01976 -1.87192 -10.88491 -2.10297 -0.5376 71.11233 -101.67272 64.16954 6.16791 93.3202 10.94443 -0.92401 44.52934 101.64095 -64.17086 7.59132 -91.06396 9.0163 1.0128 44.66359 -5.47548 -3.43324 -22.02358 -7.0926 -3.52446 -2.51091 48.80782 8.55103 0.1635 -27.17397 -7.05541 3.08568 2.25992
-0.00032 -7e-05 -0.0002 -179.74855 -39.58084 -2.86251 47.65799 3.0121 -1.87514 -10.88105 -2.10611 -0.53771 71.3797 -101.63996 64.16951 6.13074 93.32928 10.92658 -0.90409 44.65793 101.62775 -64.17104 7.5867 -91.08688 9.02806 0.98979 44.65232 -5.45477 -3.37515 -22.02553 -7.09521 -3.53575 -2.51752 48.80819 8.57909 0.24309 -27.17816 -7.05406 3.08265 2.25485
-0.00034 -8e-05 -0.00023 -179.72533 -39.58181 -2.8652 47.64995 3.0046 -1.87213 -10.88099 -2.11099 -0.53784 71.5769 -101.61897 64.16954 6.10383 93.34143 10.91362 -0.88989 44.77844 101.61108 -64.17107 7.58005 -91.1057 9.03772 0.96963 44.64587 -5.43614 -3.3193 -22.02659 -7.0976 -3.54646 -2.5237 48.81231 8.61347 0.3555 -27.18089 -7.05177 3.06998 2.24685
-0.00037 -8e-05 -0.00026 -179.70437 -39.59573 -2.86318 47.65887 2.99732 -1.85168 -10.8908 -2.12076 -0.53802 71.58488 -101.63166 64.16976 6.10505 93.36324 10.91426 -0.89082 44.86865 101.58504 -64.17059 7.56784 -91.11325 9.03952 0.95788 44.6535 -5.42291 -3.2669 -22.02498 -7.09946 -3.55588 -2.52895 48.82755 8.66961 0.5776 -27.17934 -7.04651 3.02748 2.22939
-0.0004 -8e-05 -0.00028 -179.68442 -39.61387 -2.8596 47.67339 2.99024 -1.82504 -10.90454 -2.13223 -0.53821 71.522 -101.65593 64.17005 6.11657 93.38792 10.91974 -0.89757 44.95228 101.55548 -64.16996 7.55359 -91.11671 9.03957 0.94887 44.66579 -5.41185 -3.21742 -22.02252 -7.10108 -3.56466 -2.53373 48.84642 8.73129 0.82918 -27.17638 -7.04038 2.97592 2.20924
-0.00042 -8e-05 -0.0003 -179.66427 -39.62945 -2.85695 47.68459 2.98325 -1.80143 -10.91688 -2.14284 -0.53839 71.4891 -101.674 64.1703 6.1234 93.41048 10.92293 -0.90206 45.04423 101.52746 -64.16944 7.54023 -91.12201 9.04185 0.93823 44.67537 -5.39993 -3.16817 -22.0206 -7.10277 -3.57355 -2.53859 48.86308 8.7875 1.05427 -27.17425 -7.03491 2.93077 2.19126
-0.00045 -8e-05 -0.00032 -179.64313 -39.64772 -2.85341 47.69898 2.97554 -1.77686 -10.92763 -2.15384 -0.53857 71.46457 -101.69604 64.17059 6.13034 93.43645 10.92664 -0.90502 45.11362 101.49976 -64.16877 7.52697 -91.12725 9.03826 0.92923 44.68747 -5.38733 -3.1117 -22.01802 -7.10465 -3.58325 -2.54404 48.88209 8.85609 1.33407 -27.17134 -7.02833 2.87602 2.16935
-0.00048 -8e-05 -0.00035 -179.62415 -39.66144 -2.85132 47.70816 2.9693 -1.75286 -10.94261 -2.16442 -0.53876 71.40695 -101.71255 64.17081 6.13945 93.45603 10.93025 -0.91243 45.22852 101.47045 -64.16836 7.51308 -91.1318 9.04623 0.91743 44.69544 -5.37685 -3.07178 -22.01662 -7.10604 -3.59103 -2.54811 48.89711 8.90036 1.50769 -27.16969 -7.02385 2.83899 2.15492
-0.0005 -9e-05 -0.00037 -179.61207 -39.66099 -2.85401 47.70083 2.96766 -1.73155 -10.96833 -2.17359 -0.539 71.26579 -101.71113 64.17086 6.15243 93.4569 10.93381 -0.93182 45.47039 101.43858 -64.16877 7.49775 -91.13413 9.08845 0.8977 44.69061 -5.37015 -3.06948 -22.01857 -7.10649 -3.59449 -2.54888 48.8997 8.87466 1.37392 -27.17209 -7.02551 2.85423 2.16231
-0.00051 -0.0001 -0.0004 -179.60193 -39.65591 -2.85817 47.6882 2.9674 -1.71104 -10.99818 -2.18224 -0.53924 71.09562 -101.70375 64.17083 6.16727 93.45132 10.93683 -0.95536 45.75852 101.40506 -64.16944 7.48204 -91.1362 9.14178 0.87501 44.68151 -5.36576 -3.08492 -22.02174 -7.1064 -3.5959 -2.54822 48.89823 8.82461 1.13365 -27.17577 -7.02929 2.88739 2.17723
-0.00053 -0.0001 -0.00042 -179.59009 -39.65334 -2.86139 47.67849 2.96609 -1.69047 -11.02614 -2.19102 -0.53948 70.94496 -101.69892 64.17083 6.18088 93.44887 10.9392 -0.97615 46.02549 101.3716 -64.16996 7.46642 -91.13915 9.18913 0.85333 44.67454 -5.36137 -3.0973 -22.02442 -7.10631 -3.5977 -2.54794 48.89897 8.78663 0.94653 -27.1787 -7.03202 2.91161 2.18839
-0.00055 -0.00011 -0.00045 -179.58163 -39.64926 -2.86566 47.66683 2.96647 -1.6686 -11.05429 -2.20033 -0.53973 70.76501 -101.695 64.17086 6.19606 93.44556 10.94559 -1.00044 46.29212 101.34083 -64.17062 7.45043 -91.13851 9.24141 0.83302 44.66697 -5.3528 -3.08943 -22.02681 -7.10722 -3.60169 -2.54873 48.89835 8.74445 0.73995 -27.18227 -7.03513 2.93894 2.20093
-0.00057 -0.00012 -0.00048 -179.56672 -39.6471 -2.86815 47.65787 2.96375 -1.64949 -11.08299 -2.20839 -0.53997 70.64025 -101.68784 64.17082 6.2088 93.44262 10.94329 -1.0188 46.57137 101.30422 -64.17104 7.43595 -91.14562 9.28475 0.80927 44.65953 -5.35325 -3.12694 -22.03009 -7.10596 -3.60075 -2.54703 48.89947 8.70534 0.54878 -27.18486 -7.03793 2.96411 2.21237
-0.00061 -0.00013 -0.00053 -179.53225 -39.6519 -2.86499 47.65808 2.9513 -1.63961 -11.11204 -2.21319 -0.5402 70.67426 -101.67141 64.1706 6.21095 93.4415 10.91799 -1.01615 46.86786 101.25108 -64.17066 7.41924 -91.17308 9.31158 0.77561 44.6539 -5.3799 -3.29391 -22.03579 -7.09845 -3.58575 -2.53828 48.90706 8.67919 0.42119 -27.18425 -7.03944 2.97944 2.21937
-0.00066 -0.00014 -0.00059 -179.49146 -39.65867 -2.86006 47.6611 2.93582 -1.63219 -11.14155 -2.21674 -0.54043 70.76549 -101.65229 64.17032 6.21185 93.44145 10.88361 -1.00827 47.17719 101.19233 -64.17003 7.40559 -91.20943 9.32675 0.73895 44.64846 -5.41522 -3.5045 -22.0423 -7.08883 -3.56602 -2.52716 48.91639 8.65719 0.31343 -27.18265 -7.04055 2.99194 2.22495
-0.0007 -0.00015 -0.00064 -179.45436 -39.6642 -2.85622 47.66251 2.92226 -1.62247 -11.17087 -2.22085 -0.54066 70.83116 -101.63547 64.17009 6.21466 93.441 10.853 -1.00482 47.48416 101.13662 -64.16955 7.39439 -91.24141 9.34041 0.70421 44.64265 -5.44531 -3.68935 -22.04824 -7.08041 -3.54912 -2.5175 48.92447 8.6343 0.19994 -27.18166 -7.04178 3.00544 2.2309
-0.00074 -0.00016 -0.0007 -179.41382 -39.67105 -2.85128 47.66507 2.90646 -1.61773 -11.20007 -2.22504 -0.54089 70.89321 -101.61364 64.16978 6.20914 93.43858 10.82456 -0.99189 47.77597 101.0786 -64.16892 7.36566 -91.27133 9.38423 0.66637 44.63788 -5.48082 -3.89918 -22.05501 -7.07099 -3.5294 -2.50625 48.93437 8.60651 0.0695 -27.18007 -7.04333 3.02072 2.23823
-0.00079 -0.00017 -0.00075 -179.37898 -39.67566 -2.84813 47.66608 2.89456 -1.60327 -11.2298 -2.22871 -0.54112 70.97763 -101.60198 64.16961 6.22408 93.44233 10.7886 -0.99859 48.10445 101.02431 -64.16854 7.37577 -91.31198 9.36106 0.63514 44.63104 -5.50724 -4.06788 -22.0603 -7.06311 -3.51432 -2.49769 48.94091 8.59004 -0.02029 -27.17944 -7.04408 3.03145 2.24231
-0.00085 -0.00019 -0.0008 -179.36117 -39.67373 -2.85091 47.66129 2.89445 -1.5606 -11.25912 -2.23163 -0.54137 71.10293 -101.61646 64.16985 6.26722 93.44577 10.74146 -1.05034 48.50975 100.97959 -64.16893 7.47955 -91.34147 9.16683 0.6156 44.6185 -5.50485 -4.10524 -22.06087 -7.06056 -3.5143 -2.49784 48.93816 8.60578 0.00448 -27.18195 -7.04272 3.0296 2.23709
-0.00091 -0.0002 -0.00084 -179.34939 -39.66947 -2.85544 47.65505 2.89832 -1.5082 -11.28932 -2.23399 -0.54163 71.25028 -101.64165 64.17023 6.33691 93.457 10.68571 -1.12369 48.9564 100.93912 -64.16953 7.62513 -91.38754 8.90381 0.6041 44.6039 -5.49323 -4.10067 -22.06 -7.05956 -3.51893 -2.50069 48.9319 8.63258 0.06882 -27.18543 -7.04055 3.0233 2.22873
-0.00097 -0.00021 -0.00089 -179.33498 -39.66623 -2.8588 47.65004 2.90019 -1.46077 -11.32017 -2.23638 -0.54188 71.39217 -101.66379 64.17053 6.41246 93.47794 10.62907 -1.19428 49.39641 100.89827 -64.1701 7.75943 -91.45275 8.66451 0.59387 44.59024 -5.48694 -4.12019 -22.06006 -7.05749 -3.52068 -2.50184 48.92701 8.65311 0.11065 -27.1883 -7.03874 3.01944 2.22223
-0.00103 -0.00022 -0.00093 -179.31977 -39.66327 -2.86368 47.64265 2.90277 -1.41114 -11.34637 -2.23971 -0.54212 71.51654 -101.67864 64.17089 6.40988 93.44956 10.59234 -1.23594 49.78091 100.85115 -64.17058 7.85953 -91.41027 8.45521 0.56315 44.57652 -5.47642 -4.12108 -22.05895 -7.05683 -3.52539 -2.50482 48.92321 8.67885 0.17156 -27.19182 -7.03698 3.01378 2.2139
-0.0011 -0.00024 -0.00098 -179.30791 -39.65908 -2.86585 47.63988 2.90483 -1.36373 -11.38274 -2.24094 -0.54239 71.68219 -101.71066 64.17116 6.57938 93.51747 10.51229 -1.34175 50.29655 100.81753 -64.17105 8.04292 -91.59015 8.16907 0.57655 44.56247 -5.47211 -4.1489 -22.05999 -7.05369 -3.52526 -2.50476 48.91621 8.69655 0.20273 -27.19424 -7.03491 3.01077 2.2086
-0.0012 -0.00025 -0.00106 -179.30236 -39.65253 -2.85991 47.64947 2.9046 -1.32502 -11.44451 -2.23671 -0.54272 71.95113 -101.79223 64.17109 7.1926 93.91891 10.31366 -1.63127 51.10631 100.82396 -64.17148 8.42614 -92.42344 7.67153 0.71585 44.54746 -5.48972 -4.2726 -22.06664 -7.04291 -3.50913 -2.49477 48.90144 8.68704 0.13417 -27.19314 -7.03229 3.01686 2.21299
-0.00131 -0.00027 -0.00116 -179.30022 -39.64452 -2.85121 47.66365 2.90365 -1.28887 -11.51697 -2.23034 -0.54309 72.25976 -101.88968 64.1709 7.98314 94.40311 10.07164 -1.98286 52.05202 100.84183 -64.17046 8.89432 -93.46768 7.1019 0.89938 44.53204 -5.5134 -4.42259 -22.07562 -7.02966 -3.48824 -2.48182 48.88331 8.66937 0.03527 -27.19094 -7.02938 3.0257 2.22046
